<svg width="27" height="27" viewBox="0 0 27 27" fill="none" xmlns="http://www.w3.org/2000/svg">
<circle cx="13.5" cy="13.5" r="13.5" fill="white"/>
<path d="M17.4172 5C15.4562 5 14.2184 5.95437 13.5 6.81735C12.7816 5.95437 11.5439 5 9.5822 5C6.24295 5 4 8.09339 4 10.9823C4 15.188 12.0784 20.8245 12.9995 21.4532C13.1504 21.556 13.3252 21.6075 13.5 21.6075C13.6748 21.6075 13.8496 21.556 14.0005 21.4532C14.9216 20.8245 23 15.188 23 10.9823C23 8.09339 20.7567 5 17.4172 5ZM13.4996 19.638C10.3185 17.3755 5.77536 13.3258 5.77536 10.9823C5.77536 9.21857 7.09833 6.77536 9.5822 6.77536C11.8417 6.77536 12.6393 8.72666 12.6701 8.80399C12.7999 9.14675 13.1284 9.37095 13.4949 9.37399C13.497 9.37399 13.499 9.37399 13.5011 9.37399C13.8654 9.37399 14.1939 9.14846 14.328 8.80988C14.3607 8.72666 15.1587 6.77536 17.4174 6.77536C19.9015 6.77536 21.2248 9.21838 21.2248 10.9823C21.2246 13.3231 16.6812 17.3737 13.4996 19.638Z" fill="#153484"/>
</svg>
