<svg width="14" height="13" viewBox="0 0 14 13" fill="none" xmlns="http://www.w3.org/2000/svg">
<path d="M7.39826 11.366L10.4096 12.9033C11.0314 13.2217 11.7594 12.707 11.6391 12.0361L11.0634 8.78168C11.0157 8.51409 11.1071 8.24196 11.3071 8.05395L13.7427 5.74871C14.2465 5.27342 13.9685 4.44259 13.2725 4.34556L9.90501 3.87026C9.62927 3.8316 9.38947 3.66256 9.26683 3.41998L7.76082 0.458235C7.44915 -0.152745 6.55085 -0.152745 6.23918 0.458235L4.73317 3.41998C4.60897 3.66256 4.37151 3.83161 4.09499 3.87026L0.727519 4.34556C0.0315273 4.44486 -0.246549 5.2734 0.257272 5.74871L2.69289 8.05395C2.89286 8.24195 2.98503 8.5156 2.93661 8.78168L2.36092 12.0361C2.24297 12.7077 2.96865 13.2217 3.59041 12.9033L6.60174 11.366C6.84936 11.2401 7.14384 11.2401 7.39146 11.366H7.39826Z" fill="#FAD700"/>
</svg>
